<?xml version="1.0" encoding="UTF-8"?>
<mxfile host="Electron" modified="2025-06-20T14:19:00.651Z" agent="5.0 (Macintosh; Intel Mac OS X 10_15_7) AppleWebKit/537.36 (KHTML, like Gecko) draw.io/20.8.16 Chrome/106.0.5249.199 Electron/21.4.0 Safari/537.36" version="20.8.16" etag="generated" type="device"><diagram name="Page-1" id="architecture_diagram"><mxGraphModel dx="1420" dy="893" grid="1" gridSize="10" guides="1" tooltips="1" connect="1" arrows="1" fold="1" page="1" pageScale="1" pageWidth="850" pageHeight="1100" math="0" shadow="0"><root><mxCell id="0" /><mxCell id="1" parent="0" /><object placeholders="1" c4Name="X5" label="&lt;font style=&quot;font-size: 16px&quot;&gt;&lt;b&gt;&lt;div style=&quot;text-align: left&quot;&gt;%c4Name% x %c4Instances%&lt;/div&gt;&lt;/b&gt;&lt;/font&gt;&lt;div style=&quot;text-align: left&quot;&gt;[&lt;span style=&quot;background-color: initial;&quot;&gt;%c4Specifications%]&lt;/span&gt;&lt;/div&gt;" c4Instances="1" c4Specifications="Location" id="2"><mxCell style="rounded=1;fontSize=11;whiteSpace=wrap;html=1;dashed=1;arcSize=20;fillColor=none;strokeColor=#06315C;fontColor=#000;labelBackgroundColor=none;align=left;verticalAlign=bottom;labelBorderColor=none;spacingTop=0;spacing=10;dashPattern=8 4;metaEdit=1;rotatable=0;perimeter=rectanglePerimeter;noLabel=0;labelPadding=0;allowArrows=0;;connectable=1;expand=0;recursiveResize=0;editable=1;pointerEvents=0;absoluteArcSize=1;points=[[0.25,0,0],[0.5,0,0],[0.75,0,0],[1,0.25,0],[1,0.5,0],[1,0.75,0],[0.75,1,0],[0.5,1,0],[0.25,1,0],[0,0.75,0],[0,0.5,0],[0,0.25,0]];strokeWidth=2;container=1;imageAlign=right;imageVerticalAlign=bottom;direction=east;collapsible=0;" vertex="1" parent="None"><mxGeometry x="0" y="0" width="1320" height="2260" as="geometry" /></mxCell></object><object placeholders="1" c4Name="Nubes" label="&lt;font style=&quot;font-size: 16px&quot;&gt;&lt;b&gt;&lt;div style=&quot;text-align: left&quot;&gt;%c4Name% x %c4Instances%&lt;/div&gt;&lt;/b&gt;&lt;/font&gt;&lt;div style=&quot;text-align: left&quot;&gt;[&lt;span style=&quot;background-color: initial;&quot;&gt;%c4Specifications%]&lt;/span&gt;&lt;/div&gt;" c4Instances="1" c4Specifications="Data Center" id="3"><mxCell style="rounded=1;fontSize=11;whiteSpace=wrap;html=1;dashed=1;arcSize=20;fillColor=none;strokeColor=#06315C;fontColor=#000;labelBackgroundColor=none;align=left;verticalAlign=bottom;labelBorderColor=none;spacingTop=0;spacing=10;dashPattern=8 4;metaEdit=1;rotatable=0;perimeter=rectanglePerimeter;noLabel=0;labelPadding=0;allowArrows=0;;connectable=1;expand=0;recursiveResize=0;editable=1;pointerEvents=0;absoluteArcSize=1;points=[[0.25,0,0],[0.5,0,0],[0.75,0,0],[1,0.25,0],[1,0.5,0],[1,0.75,0],[0.75,1,0],[0.5,1,0],[0.25,1,0],[0,0.75,0],[0,0.5,0],[0,0.25,0]];strokeWidth=2;container=1;imageAlign=right;imageVerticalAlign=bottom;direction=east;collapsible=0;" vertex="1" parent="2"><mxGeometry x="30" y="30" width="1260" height="2150" as="geometry" /></mxCell></object><object placeholders="1" c4Name="Intranet.Salt" label="&lt;font style=&quot;font-size: 16px&quot;&gt;&lt;b&gt;&lt;div style=&quot;text-align: left&quot;&gt;%c4Name% x %c4Instances%&lt;/div&gt;&lt;/b&gt;&lt;/font&gt;&lt;div style=&quot;text-align: left&quot;&gt;[&lt;span style=&quot;background-color: initial;&quot;&gt;%c4Specifications%]&lt;/span&gt;&lt;/div&gt;" c4Instances="1" c4Specifications="Platform" id="4"><mxCell style="rounded=1;fontSize=11;whiteSpace=wrap;html=1;dashed=1;arcSize=20;fillColor=none;strokeColor=#06315C;fontColor=#000;labelBackgroundColor=none;align=left;verticalAlign=bottom;labelBorderColor=none;spacingTop=0;spacing=10;dashPattern=8 4;metaEdit=1;rotatable=0;perimeter=rectanglePerimeter;noLabel=0;labelPadding=0;allowArrows=0;;connectable=1;expand=0;recursiveResize=0;editable=1;pointerEvents=0;absoluteArcSize=1;points=[[0.25,0,0],[0.5,0,0],[0.75,0,0],[1,0.25,0],[1,0.5,0],[1,0.75,0],[0.75,1,0],[0.5,1,0],[0.25,1,0],[0,0.75,0],[0,0.5,0],[0,0.25,0]];strokeWidth=2;container=1;imageAlign=right;imageVerticalAlign=bottom;direction=east;collapsible=0;" vertex="1" parent="3"><mxGeometry x="30" y="30" width="1200" height="2040" as="geometry" /></mxCell></object><object placeholders="1" c4Name="x5-ibp-prod" label="&lt;font style=&quot;font-size: 16px&quot;&gt;&lt;b&gt;&lt;div style=&quot;text-align: left&quot;&gt;%c4Name% x %c4Instances%&lt;/div&gt;&lt;/b&gt;&lt;/font&gt;&lt;div style=&quot;text-align: left&quot;&gt;[&lt;span style=&quot;background-color: initial;&quot;&gt;%c4Specifications%]&lt;/span&gt;&lt;/div&gt;" c4Instances="1" c4Specifications="Salt Project" id="5"><mxCell style="rounded=1;fontSize=11;whiteSpace=wrap;html=1;dashed=1;arcSize=20;fillColor=none;strokeColor=#06315C;fontColor=#000;labelBackgroundColor=none;align=left;verticalAlign=bottom;labelBorderColor=none;spacingTop=0;spacing=10;dashPattern=8 4;metaEdit=1;rotatable=0;perimeter=rectanglePerimeter;noLabel=0;labelPadding=0;allowArrows=0;;connectable=1;expand=0;recursiveResize=0;editable=1;pointerEvents=0;absoluteArcSize=1;points=[[0.25,0,0],[0.5,0,0],[0.75,0,0],[1,0.25,0],[1,0.5,0],[1,0.75,0],[0.75,1,0],[0.5,1,0],[0.25,1,0],[0,0.75,0],[0,0.5,0],[0,0.25,0]];strokeWidth=2;container=1;imageAlign=right;imageVerticalAlign=bottom;direction=east;collapsible=0;" vertex="1" parent="4"><mxGeometry x="30" y="30" width="1140" height="1930" as="geometry" /></mxCell></object><object placeholders="1" c4Name="ibp-prod-1" label="&lt;font style=&quot;font-size: 16px&quot;&gt;&lt;b&gt;&lt;div style=&quot;text-align: left&quot;&gt;%c4Name% x %c4Instances%&lt;/div&gt;&lt;/b&gt;&lt;/font&gt;&lt;div style=&quot;text-align: left&quot;&gt;[&lt;span style=&quot;background-color: initial;&quot;&gt;%c4Specifications%]&lt;/span&gt;&lt;/div&gt;" c4Instances="1" c4Specifications="k8s cluster" id="6"><mxCell style="rounded=1;fontSize=11;whiteSpace=wrap;html=1;dashed=1;arcSize=20;fillColor=none;strokeColor=#06315C;fontColor=#000;labelBackgroundColor=none;align=left;verticalAlign=bottom;labelBorderColor=none;spacingTop=0;spacing=10;dashPattern=8 4;metaEdit=1;rotatable=0;perimeter=rectanglePerimeter;noLabel=0;labelPadding=0;allowArrows=0;;connectable=1;expand=0;recursiveResize=0;editable=1;pointerEvents=0;absoluteArcSize=1;points=[[0.25,0,0],[0.5,0,0],[0.75,0,0],[1,0.25,0],[1,0.5,0],[1,0.75,0],[0.75,1,0],[0.5,1,0],[0.25,1,0],[0,0.75,0],[0,0.5,0],[0,0.25,0]];strokeWidth=2;container=1;imageAlign=right;imageVerticalAlign=bottom;direction=east;collapsible=0;" vertex="1" parent="5"><mxGeometry x="30" y="30" width="1080" height="1450" as="geometry" /></mxCell></object><object placeholders="1" c4Name="ibp-ts5-prod-main" label="&lt;font style=&quot;font-size: 16px&quot;&gt;&lt;b&gt;&lt;div style=&quot;text-align: left&quot;&gt;%c4Name% x %c4Instances%&lt;/div&gt;&lt;/b&gt;&lt;/font&gt;&lt;div style=&quot;text-align: left&quot;&gt;[&lt;span style=&quot;background-color: initial;&quot;&gt;%c4Specifications%]&lt;/span&gt;&lt;/div&gt;" c4Instances="1" c4Specifications="namespace" id="7"><mxCell style="rounded=1;fontSize=11;whiteSpace=wrap;html=1;dashed=1;arcSize=20;fillColor=none;strokeColor=#06315C;fontColor=#000;labelBackgroundColor=none;align=left;verticalAlign=bottom;labelBorderColor=none;spacingTop=0;spacing=10;dashPattern=8 4;metaEdit=1;rotatable=0;perimeter=rectanglePerimeter;noLabel=0;labelPadding=0;allowArrows=0;;connectable=1;expand=0;recursiveResize=0;editable=1;pointerEvents=0;absoluteArcSize=1;points=[[0.25,0,0],[0.5,0,0],[0.75,0,0],[1,0.25,0],[1,0.5,0],[1,0.75,0],[0.75,1,0],[0.5,1,0],[0.25,1,0],[0,0.75,0],[0,0.5,0],[0,0.25,0]];strokeWidth=2;container=1;imageAlign=right;imageVerticalAlign=bottom;direction=east;collapsible=0;" vertex="1" parent="6"><mxGeometry x="30" y="30" width="1020" height="600" as="geometry" /></mxCell></object><object placeholders="1" c4Name="frontend-frov" label="&lt;font style=&quot;font-size: 16px&quot;&gt;&lt;b&gt;&lt;div style=&quot;text-align: left&quot;&gt;%c4Name% x %c4Instances%&lt;/div&gt;&lt;/b&gt;&lt;/font&gt;&lt;div style=&quot;text-align: left&quot;&gt;[&lt;span style=&quot;background-color: initial;&quot;&gt;%c4Specifications%]&lt;/span&gt;&lt;/div&gt;" c4Instances="1" c4Specifications="k8s pod" id="8"><mxCell style="rounded=1;fontSize=11;whiteSpace=wrap;html=1;dashed=1;arcSize=20;fillColor=none;strokeColor=#06315C;fontColor=#000;labelBackgroundColor=none;align=left;verticalAlign=bottom;labelBorderColor=none;spacingTop=0;spacing=10;dashPattern=8 4;metaEdit=1;rotatable=0;perimeter=rectanglePerimeter;noLabel=0;labelPadding=0;allowArrows=0;;connectable=1;expand=0;recursiveResize=0;editable=1;pointerEvents=0;absoluteArcSize=1;points=[[0.25,0,0],[0.5,0,0],[0.75,0,0],[1,0.25,0],[1,0.5,0],[1,0.75,0],[0.75,1,0],[0.5,1,0],[0.25,1,0],[0,0.75,0],[0,0.5,0],[0,0.25,0]];strokeWidth=2;container=1;imageAlign=right;imageVerticalAlign=bottom;direction=east;collapsible=0;" vertex="1" parent="7"><mxGeometry x="30" y="30" width="300" height="230" as="geometry" /></mxCell></object><object placeholders="1" c4Name="Frontend - ФРОВ ТС5" c4Type="Web Application Frontend" c4Technology="ReactJS" c4Description="Фронтенд для работы пользователей" label="&lt;font style=&quot;font-size: 16px&quot;&gt;&lt;b&gt;%c4Name%&lt;/b&gt;&lt;/font&gt;&lt;div&gt;[%c4Type%: %c4Technology%]&lt;/div&gt;&lt;br&gt;&lt;div&gt;&lt;font style=&quot;font-size: 11px&quot;&gt;%c4Description%&lt;/font&gt;&lt;/div&gt;" id="9"><mxCell style="rounded=1;whiteSpace=wrap;html=1;labelBackgroundColor=none;fillColor=#23A2D9;fontColor=#ffffff;align=center;arcSize=6;strokeColor=#0E7DAD;metaEdit=1;resizable=1;points=[[0.25,0,0],[0.5,0,0],[0.75,0,0],[1,0.25,0],[1,0.5,0],[1,0.75,0],[0.75,1,0],[0.5,1,0],[0.25,1,0],[0,0.75,0],[0,0.5,0],[0,0.25,0]];fontSize=14;strokeWidth=3;allowArrows=0;rotatable=0;" vertex="1" parent="8"><mxGeometry x="30" y="30" width="240" height="120" as="geometry" /></mxCell></object><object placeholders="1" c4Name="frontend-dry" label="&lt;font style=&quot;font-size: 16px&quot;&gt;&lt;b&gt;&lt;div style=&quot;text-align: left&quot;&gt;%c4Name% x %c4Instances%&lt;/div&gt;&lt;/b&gt;&lt;/font&gt;&lt;div style=&quot;text-align: left&quot;&gt;[&lt;span style=&quot;background-color: initial;&quot;&gt;%c4Specifications%]&lt;/span&gt;&lt;/div&gt;" c4Instances="1" c4Specifications="k8s pod" id="10"><mxCell style="rounded=1;fontSize=11;whiteSpace=wrap;html=1;dashed=1;arcSize=20;fillColor=none;strokeColor=#06315C;fontColor=#000;labelBackgroundColor=none;align=left;verticalAlign=bottom;labelBorderColor=none;spacingTop=0;spacing=10;dashPattern=8 4;metaEdit=1;rotatable=0;perimeter=rectanglePerimeter;noLabel=0;labelPadding=0;allowArrows=0;;connectable=1;expand=0;recursiveResize=0;editable=1;pointerEvents=0;absoluteArcSize=1;points=[[0.25,0,0],[0.5,0,0],[0.75,0,0],[1,0.25,0],[1,0.5,0],[1,0.75,0],[0.75,1,0],[0.5,1,0],[0.25,1,0],[0,0.75,0],[0,0.5,0],[0,0.25,0]];strokeWidth=2;container=1;imageAlign=right;imageVerticalAlign=bottom;direction=east;collapsible=0;" vertex="1" parent="7"><mxGeometry x="360" y="30" width="300" height="230" as="geometry" /></mxCell></object><object placeholders="1" c4Name="Frontend - Драй ТС5" c4Type="Web Application Frontend" c4Technology="ReactJS" c4Description="Фронтенд для работы пользователей" label="&lt;font style=&quot;font-size: 16px&quot;&gt;&lt;b&gt;%c4Name%&lt;/b&gt;&lt;/font&gt;&lt;div&gt;[%c4Type%: %c4Technology%]&lt;/div&gt;&lt;br&gt;&lt;div&gt;&lt;font style=&quot;font-size: 11px&quot;&gt;%c4Description%&lt;/font&gt;&lt;/div&gt;" id="11"><mxCell style="rounded=1;whiteSpace=wrap;html=1;labelBackgroundColor=none;fillColor=#23A2D9;fontColor=#ffffff;align=center;arcSize=6;strokeColor=#0E7DAD;metaEdit=1;resizable=1;points=[[0.25,0,0],[0.5,0,0],[0.75,0,0],[1,0.25,0],[1,0.5,0],[1,0.75,0],[0.75,1,0],[0.5,1,0],[0.25,1,0],[0,0.75,0],[0,0.5,0],[0,0.25,0]];fontSize=14;strokeWidth=3;allowArrows=0;rotatable=0;" vertex="1" parent="10"><mxGeometry x="30" y="30" width="240" height="120" as="geometry" /></mxCell></object><object placeholders="1" c4Name="frontend-corn" label="&lt;font style=&quot;font-size: 16px&quot;&gt;&lt;b&gt;&lt;div style=&quot;text-align: left&quot;&gt;%c4Name% x %c4Instances%&lt;/div&gt;&lt;/b&gt;&lt;/font&gt;&lt;div style=&quot;text-align: left&quot;&gt;[&lt;span style=&quot;background-color: initial;&quot;&gt;%c4Specifications%]&lt;/span&gt;&lt;/div&gt;" c4Instances="1" c4Specifications="k8s pod" id="12"><mxCell style="rounded=1;fontSize=11;whiteSpace=wrap;html=1;dashed=1;arcSize=20;fillColor=none;strokeColor=#06315C;fontColor=#000;labelBackgroundColor=none;align=left;verticalAlign=bottom;labelBorderColor=none;spacingTop=0;spacing=10;dashPattern=8 4;metaEdit=1;rotatable=0;perimeter=rectanglePerimeter;noLabel=0;labelPadding=0;allowArrows=0;;connectable=1;expand=0;recursiveResize=0;editable=1;pointerEvents=0;absoluteArcSize=1;points=[[0.25,0,0],[0.5,0,0],[0.75,0,0],[1,0.25,0],[1,0.5,0],[1,0.75,0],[0.75,1,0],[0.5,1,0],[0.25,1,0],[0,0.75,0],[0,0.5,0],[0,0.25,0]];strokeWidth=2;container=1;imageAlign=right;imageVerticalAlign=bottom;direction=east;collapsible=0;" vertex="1" parent="7"><mxGeometry x="690" y="30" width="300" height="230" as="geometry" /></mxCell></object><object placeholders="1" c4Name="Frontend - CORN" c4Type="Web Application Frontend" c4Technology="ReactJS" c4Description="Фронтенд для работы пользователей" label="&lt;font style=&quot;font-size: 16px&quot;&gt;&lt;b&gt;%c4Name%&lt;/b&gt;&lt;/font&gt;&lt;div&gt;[%c4Type%: %c4Technology%]&lt;/div&gt;&lt;br&gt;&lt;div&gt;&lt;font style=&quot;font-size: 11px&quot;&gt;%c4Description%&lt;/font&gt;&lt;/div&gt;" id="13"><mxCell style="rounded=1;whiteSpace=wrap;html=1;labelBackgroundColor=none;fillColor=#23A2D9;fontColor=#ffffff;align=center;arcSize=6;strokeColor=#0E7DAD;metaEdit=1;resizable=1;points=[[0.25,0,0],[0.5,0,0],[0.75,0,0],[1,0.25,0],[1,0.5,0],[1,0.75,0],[0.75,1,0],[0.5,1,0],[0.25,1,0],[0,0.75,0],[0,0.5,0],[0,0.25,0]];fontSize=14;strokeWidth=3;allowArrows=0;rotatable=0;" vertex="1" parent="12"><mxGeometry x="30" y="30" width="240" height="120" as="geometry" /></mxCell></object><object placeholders="1" c4Name="backend-frov" label="&lt;font style=&quot;font-size: 16px&quot;&gt;&lt;b&gt;&lt;div style=&quot;text-align: left&quot;&gt;%c4Name% x %c4Instances%&lt;/div&gt;&lt;/b&gt;&lt;/font&gt;&lt;div style=&quot;text-align: left&quot;&gt;[&lt;span style=&quot;background-color: initial;&quot;&gt;%c4Specifications%]&lt;/span&gt;&lt;/div&gt;" c4Instances="2" c4Specifications="k8s pod" id="14"><mxCell style="rounded=1;fontSize=11;whiteSpace=wrap;html=1;dashed=1;arcSize=20;fillColor=none;strokeColor=#06315C;fontColor=#000;labelBackgroundColor=none;align=left;verticalAlign=bottom;labelBorderColor=none;spacingTop=0;spacing=10;dashPattern=8 4;metaEdit=1;rotatable=0;perimeter=rectanglePerimeter;noLabel=0;labelPadding=0;allowArrows=0;;connectable=1;expand=0;recursiveResize=0;editable=1;pointerEvents=0;absoluteArcSize=1;points=[[0.25,0,0],[0.5,0,0],[0.75,0,0],[1,0.25,0],[1,0.5,0],[1,0.75,0],[0.75,1,0],[0.5,1,0],[0.25,1,0],[0,0.75,0],[0,0.5,0],[0,0.25,0]];strokeWidth=2;container=1;imageAlign=right;imageVerticalAlign=bottom;direction=east;collapsible=0;" vertex="1" parent="7"><mxGeometry x="30" y="290" width="300" height="230" as="geometry" /></mxCell></object><object placeholders="1" c4Name="Backend - ФРОВ ТС5" c4Type="Service" c4Technology="Django" c4Description="Ручная загрузка файлов" label="&lt;font style=&quot;font-size: 16px&quot;&gt;&lt;b&gt;%c4Name%&lt;/b&gt;&lt;/font&gt;&lt;div&gt;[%c4Type%: %c4Technology%]&lt;/div&gt;&lt;br&gt;&lt;div&gt;&lt;font style=&quot;font-size: 11px&quot;&gt;%c4Description%&lt;/font&gt;&lt;/div&gt;" id="15"><mxCell style="rounded=1;whiteSpace=wrap;html=1;labelBackgroundColor=none;fillColor=#23A2D9;fontColor=#ffffff;align=center;arcSize=6;strokeColor=#0E7DAD;metaEdit=1;resizable=1;points=[[0.25,0,0],[0.5,0,0],[0.75,0,0],[1,0.25,0],[1,0.5,0],[1,0.75,0],[0.75,1,0],[0.5,1,0],[0.25,1,0],[0,0.75,0],[0,0.5,0],[0,0.25,0]];fontSize=14;strokeWidth=3;allowArrows=0;rotatable=0;" vertex="1" parent="14"><mxGeometry x="30" y="30" width="240" height="120" as="geometry" /></mxCell></object><object placeholders="1" c4Name="backend-dry" label="&lt;font style=&quot;font-size: 16px&quot;&gt;&lt;b&gt;&lt;div style=&quot;text-align: left&quot;&gt;%c4Name% x %c4Instances%&lt;/div&gt;&lt;/b&gt;&lt;/font&gt;&lt;div style=&quot;text-align: left&quot;&gt;[&lt;span style=&quot;background-color: initial;&quot;&gt;%c4Specifications%]&lt;/span&gt;&lt;/div&gt;" c4Instances="2" c4Specifications="k8s pod" id="16"><mxCell style="rounded=1;fontSize=11;whiteSpace=wrap;html=1;dashed=1;arcSize=20;fillColor=none;strokeColor=#06315C;fontColor=#000;labelBackgroundColor=none;align=left;verticalAlign=bottom;labelBorderColor=none;spacingTop=0;spacing=10;dashPattern=8 4;metaEdit=1;rotatable=0;perimeter=rectanglePerimeter;noLabel=0;labelPadding=0;allowArrows=0;;connectable=1;expand=0;recursiveResize=0;editable=1;pointerEvents=0;absoluteArcSize=1;points=[[0.25,0,0],[0.5,0,0],[0.75,0,0],[1,0.25,0],[1,0.5,0],[1,0.75,0],[0.75,1,0],[0.5,1,0],[0.25,1,0],[0,0.75,0],[0,0.5,0],[0,0.25,0]];strokeWidth=2;container=1;imageAlign=right;imageVerticalAlign=bottom;direction=east;collapsible=0;" vertex="1" parent="7"><mxGeometry x="360" y="290" width="300" height="230" as="geometry" /></mxCell></object><object placeholders="1" c4Name="Backend - Драй ТС5" c4Type="Service" c4Technology="Django" c4Description="Ручная загрузка файлов" label="&lt;font style=&quot;font-size: 16px&quot;&gt;&lt;b&gt;%c4Name%&lt;/b&gt;&lt;/font&gt;&lt;div&gt;[%c4Type%: %c4Technology%]&lt;/div&gt;&lt;br&gt;&lt;div&gt;&lt;font style=&quot;font-size: 11px&quot;&gt;%c4Description%&lt;/font&gt;&lt;/div&gt;" id="17"><mxCell style="rounded=1;whiteSpace=wrap;html=1;labelBackgroundColor=none;fillColor=#23A2D9;fontColor=#ffffff;align=center;arcSize=6;strokeColor=#0E7DAD;metaEdit=1;resizable=1;points=[[0.25,0,0],[0.5,0,0],[0.75,0,0],[1,0.25,0],[1,0.5,0],[1,0.75,0],[0.75,1,0],[0.5,1,0],[0.25,1,0],[0,0.75,0],[0,0.5,0],[0,0.25,0]];fontSize=14;strokeWidth=3;allowArrows=0;rotatable=0;" vertex="1" parent="16"><mxGeometry x="30" y="30" width="240" height="120" as="geometry" /></mxCell></object><object placeholders="1" c4Name="backend-corn" label="&lt;font style=&quot;font-size: 16px&quot;&gt;&lt;b&gt;&lt;div style=&quot;text-align: left&quot;&gt;%c4Name% x %c4Instances%&lt;/div&gt;&lt;/b&gt;&lt;/font&gt;&lt;div style=&quot;text-align: left&quot;&gt;[&lt;span style=&quot;background-color: initial;&quot;&gt;%c4Specifications%]&lt;/span&gt;&lt;/div&gt;" c4Instances="2" c4Specifications="k8s pod" id="18"><mxCell style="rounded=1;fontSize=11;whiteSpace=wrap;html=1;dashed=1;arcSize=20;fillColor=none;strokeColor=#06315C;fontColor=#000;labelBackgroundColor=none;align=left;verticalAlign=bottom;labelBorderColor=none;spacingTop=0;spacing=10;dashPattern=8 4;metaEdit=1;rotatable=0;perimeter=rectanglePerimeter;noLabel=0;labelPadding=0;allowArrows=0;;connectable=1;expand=0;recursiveResize=0;editable=1;pointerEvents=0;absoluteArcSize=1;points=[[0.25,0,0],[0.5,0,0],[0.75,0,0],[1,0.25,0],[1,0.5,0],[1,0.75,0],[0.75,1,0],[0.5,1,0],[0.25,1,0],[0,0.75,0],[0,0.5,0],[0,0.25,0]];strokeWidth=2;container=1;imageAlign=right;imageVerticalAlign=bottom;direction=east;collapsible=0;" vertex="1" parent="7"><mxGeometry x="690" y="290" width="300" height="230" as="geometry" /></mxCell></object><object placeholders="1" c4Name="Backend - CORN" c4Type="Service" c4Technology="Django" c4Description="Ручная загрузка файлов" label="&lt;font style=&quot;font-size: 16px&quot;&gt;&lt;b&gt;%c4Name%&lt;/b&gt;&lt;/font&gt;&lt;div&gt;[%c4Type%: %c4Technology%]&lt;/div&gt;&lt;br&gt;&lt;div&gt;&lt;font style=&quot;font-size: 11px&quot;&gt;%c4Description%&lt;/font&gt;&lt;/div&gt;" id="19"><mxCell style="rounded=1;whiteSpace=wrap;html=1;labelBackgroundColor=none;fillColor=#23A2D9;fontColor=#ffffff;align=center;arcSize=6;strokeColor=#0E7DAD;metaEdit=1;resizable=1;points=[[0.25,0,0],[0.5,0,0],[0.75,0,0],[1,0.25,0],[1,0.5,0],[1,0.75,0],[0.75,1,0],[0.5,1,0],[0.25,1,0],[0,0.75,0],[0,0.5,0],[0,0.25,0]];fontSize=14;strokeWidth=3;allowArrows=0;rotatable=0;" vertex="1" parent="18"><mxGeometry x="30" y="30" width="240" height="120" as="geometry" /></mxCell></object><object placeholders="1" c4Name="ibp-tsx-prod-main" label="&lt;font style=&quot;font-size: 16px&quot;&gt;&lt;b&gt;&lt;div style=&quot;text-align: left&quot;&gt;%c4Name% x %c4Instances%&lt;/div&gt;&lt;/b&gt;&lt;/font&gt;&lt;div style=&quot;text-align: left&quot;&gt;[&lt;span style=&quot;background-color: initial;&quot;&gt;%c4Specifications%]&lt;/span&gt;&lt;/div&gt;" c4Instances="1" c4Specifications="namespace" id="20"><mxCell style="rounded=1;fontSize=11;whiteSpace=wrap;html=1;dashed=1;arcSize=20;fillColor=none;strokeColor=#06315C;fontColor=#000;labelBackgroundColor=none;align=left;verticalAlign=bottom;labelBorderColor=none;spacingTop=0;spacing=10;dashPattern=8 4;metaEdit=1;rotatable=0;perimeter=rectanglePerimeter;noLabel=0;labelPadding=0;allowArrows=0;;connectable=1;expand=0;recursiveResize=0;editable=1;pointerEvents=0;absoluteArcSize=1;points=[[0.25,0,0],[0.5,0,0],[0.75,0,0],[1,0.25,0],[1,0.5,0],[1,0.75,0],[0.75,1,0],[0.5,1,0],[0.25,1,0],[0,0.75,0],[0,0.5,0],[0,0.25,0]];strokeWidth=2;container=1;imageAlign=right;imageVerticalAlign=bottom;direction=east;collapsible=0;" vertex="1" parent="6"><mxGeometry x="30" y="660" width="690" height="340" as="geometry" /></mxCell></object><object placeholders="1" c4Name="frontend-main" label="&lt;font style=&quot;font-size: 16px&quot;&gt;&lt;b&gt;&lt;div style=&quot;text-align: left&quot;&gt;%c4Name% x %c4Instances%&lt;/div&gt;&lt;/b&gt;&lt;/font&gt;&lt;div style=&quot;text-align: left&quot;&gt;[&lt;span style=&quot;background-color: initial;&quot;&gt;%c4Specifications%]&lt;/span&gt;&lt;/div&gt;" c4Instances="1" c4Specifications="k8s pod" id="21"><mxCell style="rounded=1;fontSize=11;whiteSpace=wrap;html=1;dashed=1;arcSize=20;fillColor=none;strokeColor=#06315C;fontColor=#000;labelBackgroundColor=none;align=left;verticalAlign=bottom;labelBorderColor=none;spacingTop=0;spacing=10;dashPattern=8 4;metaEdit=1;rotatable=0;perimeter=rectanglePerimeter;noLabel=0;labelPadding=0;allowArrows=0;;connectable=1;expand=0;recursiveResize=0;editable=1;pointerEvents=0;absoluteArcSize=1;points=[[0.25,0,0],[0.5,0,0],[0.75,0,0],[1,0.25,0],[1,0.5,0],[1,0.75,0],[0.75,1,0],[0.5,1,0],[0.25,1,0],[0,0.75,0],[0,0.5,0],[0,0.25,0]];strokeWidth=2;container=1;imageAlign=right;imageVerticalAlign=bottom;direction=east;collapsible=0;" vertex="1" parent="20"><mxGeometry x="30" y="30" width="300" height="230" as="geometry" /></mxCell></object><object placeholders="1" c4Name="Frontend - ТСХ" c4Type="Web Application Frontend" c4Technology="ReactJS" c4Description="Фронтенд для работы пользователей" label="&lt;font style=&quot;font-size: 16px&quot;&gt;&lt;b&gt;%c4Name%&lt;/b&gt;&lt;/font&gt;&lt;div&gt;[%c4Type%: %c4Technology%]&lt;/div&gt;&lt;br&gt;&lt;div&gt;&lt;font style=&quot;font-size: 11px&quot;&gt;%c4Description%&lt;/font&gt;&lt;/div&gt;" id="22"><mxCell style="rounded=1;whiteSpace=wrap;html=1;labelBackgroundColor=none;fillColor=#23A2D9;fontColor=#ffffff;align=center;arcSize=6;strokeColor=#0E7DAD;metaEdit=1;resizable=1;points=[[0.25,0,0],[0.5,0,0],[0.75,0,0],[1,0.25,0],[1,0.5,0],[1,0.75,0],[0.75,1,0],[0.5,1,0],[0.25,1,0],[0,0.75,0],[0,0.5,0],[0,0.25,0]];fontSize=14;strokeWidth=3;allowArrows=0;rotatable=0;" vertex="1" parent="21"><mxGeometry x="30" y="30" width="240" height="120" as="geometry" /></mxCell></object><object placeholders="1" c4Name="backend-main" label="&lt;font style=&quot;font-size: 16px&quot;&gt;&lt;b&gt;&lt;div style=&quot;text-align: left&quot;&gt;%c4Name% x %c4Instances%&lt;/div&gt;&lt;/b&gt;&lt;/font&gt;&lt;div style=&quot;text-align: left&quot;&gt;[&lt;span style=&quot;background-color: initial;&quot;&gt;%c4Specifications%]&lt;/span&gt;&lt;/div&gt;" c4Instances="2" c4Specifications="k8s pod" id="23"><mxCell style="rounded=1;fontSize=11;whiteSpace=wrap;html=1;dashed=1;arcSize=20;fillColor=none;strokeColor=#06315C;fontColor=#000;labelBackgroundColor=none;align=left;verticalAlign=bottom;labelBorderColor=none;spacingTop=0;spacing=10;dashPattern=8 4;metaEdit=1;rotatable=0;perimeter=rectanglePerimeter;noLabel=0;labelPadding=0;allowArrows=0;;connectable=1;expand=0;recursiveResize=0;editable=1;pointerEvents=0;absoluteArcSize=1;points=[[0.25,0,0],[0.5,0,0],[0.75,0,0],[1,0.25,0],[1,0.5,0],[1,0.75,0],[0.75,1,0],[0.5,1,0],[0.25,1,0],[0,0.75,0],[0,0.5,0],[0,0.25,0]];strokeWidth=2;container=1;imageAlign=right;imageVerticalAlign=bottom;direction=east;collapsible=0;" vertex="1" parent="20"><mxGeometry x="360" y="30" width="300" height="230" as="geometry" /></mxCell></object><object placeholders="1" c4Name="Backend - ТСХ" c4Type="Service" c4Technology="Django" c4Description="Ручная загрузка файлов" label="&lt;font style=&quot;font-size: 16px&quot;&gt;&lt;b&gt;%c4Name%&lt;/b&gt;&lt;/font&gt;&lt;div&gt;[%c4Type%: %c4Technology%]&lt;/div&gt;&lt;br&gt;&lt;div&gt;&lt;font style=&quot;font-size: 11px&quot;&gt;%c4Description%&lt;/font&gt;&lt;/div&gt;" id="24"><mxCell style="rounded=1;whiteSpace=wrap;html=1;labelBackgroundColor=none;fillColor=#23A2D9;fontColor=#ffffff;align=center;arcSize=6;strokeColor=#0E7DAD;metaEdit=1;resizable=1;points=[[0.25,0,0],[0.5,0,0],[0.75,0,0],[1,0.25,0],[1,0.5,0],[1,0.75,0],[0.75,1,0],[0.5,1,0],[0.25,1,0],[0,0.75,0],[0,0.5,0],[0,0.25,0]];fontSize=14;strokeWidth=3;allowArrows=0;rotatable=0;" vertex="1" parent="23"><mxGeometry x="30" y="30" width="240" height="120" as="geometry" /></mxCell></object><object placeholders="1" c4Name="ibp-common-prod-main" label="&lt;font style=&quot;font-size: 16px&quot;&gt;&lt;b&gt;&lt;div style=&quot;text-align: left&quot;&gt;%c4Name% x %c4Instances%&lt;/div&gt;&lt;/b&gt;&lt;/font&gt;&lt;div style=&quot;text-align: left&quot;&gt;[&lt;span style=&quot;background-color: initial;&quot;&gt;%c4Specifications%]&lt;/span&gt;&lt;/div&gt;" c4Instances="1" c4Specifications="namespace" id="25"><mxCell style="rounded=1;fontSize=11;whiteSpace=wrap;html=1;dashed=1;arcSize=20;fillColor=none;strokeColor=#06315C;fontColor=#000;labelBackgroundColor=none;align=left;verticalAlign=bottom;labelBorderColor=none;spacingTop=0;spacing=10;dashPattern=8 4;metaEdit=1;rotatable=0;perimeter=rectanglePerimeter;noLabel=0;labelPadding=0;allowArrows=0;;connectable=1;expand=0;recursiveResize=0;editable=1;pointerEvents=0;absoluteArcSize=1;points=[[0.25,0,0],[0.5,0,0],[0.75,0,0],[1,0.25,0],[1,0.5,0],[1,0.75,0],[0.75,1,0],[0.5,1,0],[0.25,1,0],[0,0.75,0],[0,0.5,0],[0,0.25,0]];strokeWidth=2;container=1;imageAlign=right;imageVerticalAlign=bottom;direction=east;collapsible=0;" vertex="1" parent="6"><mxGeometry x="30" y="1030" width="360" height="340" as="geometry" /></mxCell></object><object placeholders="1" c4Name="int-stats" label="&lt;font style=&quot;font-size: 16px&quot;&gt;&lt;b&gt;&lt;div style=&quot;text-align: left&quot;&gt;%c4Name% x %c4Instances%&lt;/div&gt;&lt;/b&gt;&lt;/font&gt;&lt;div style=&quot;text-align: left&quot;&gt;[&lt;span style=&quot;background-color: initial;&quot;&gt;%c4Specifications%]&lt;/span&gt;&lt;/div&gt;" c4Instances="2" c4Specifications="k8s pod" id="26"><mxCell style="rounded=1;fontSize=11;whiteSpace=wrap;html=1;dashed=1;arcSize=20;fillColor=none;strokeColor=#06315C;fontColor=#000;labelBackgroundColor=none;align=left;verticalAlign=bottom;labelBorderColor=none;spacingTop=0;spacing=10;dashPattern=8 4;metaEdit=1;rotatable=0;perimeter=rectanglePerimeter;noLabel=0;labelPadding=0;allowArrows=0;;connectable=1;expand=0;recursiveResize=0;editable=1;pointerEvents=0;absoluteArcSize=1;points=[[0.25,0,0],[0.5,0,0],[0.75,0,0],[1,0.25,0],[1,0.5,0],[1,0.75,0],[0.75,1,0],[0.5,1,0],[0.25,1,0],[0,0.75,0],[0,0.5,0],[0,0.25,0]];strokeWidth=2;container=1;imageAlign=right;imageVerticalAlign=bottom;direction=east;collapsible=0;" vertex="1" parent="25"><mxGeometry x="30" y="30" width="300" height="230" as="geometry" /></mxCell></object><object placeholders="1" c4Name="Сервис статистики интеграции" c4Type="Service" c4Technology="FastAPI" c4Description="- Внесение регламентов работы интеграционных дагов&#13;&#10;- Обработка событий работы интеграций, преобразование в статусную модель" label="&lt;font style=&quot;font-size: 16px&quot;&gt;&lt;b&gt;%c4Name%&lt;/b&gt;&lt;/font&gt;&lt;div&gt;[%c4Type%: %c4Technology%]&lt;/div&gt;&lt;br&gt;&lt;div&gt;&lt;font style=&quot;font-size: 11px&quot;&gt;%c4Description%&lt;/font&gt;&lt;/div&gt;" id="27"><mxCell style="rounded=1;whiteSpace=wrap;html=1;labelBackgroundColor=none;fillColor=#23A2D9;fontColor=#ffffff;align=center;arcSize=6;strokeColor=#0E7DAD;metaEdit=1;resizable=1;points=[[0.25,0,0],[0.5,0,0],[0.75,0,0],[1,0.25,0],[1,0.5,0],[1,0.75,0],[0.75,1,0],[0.5,1,0],[0.25,1,0],[0,0.75,0],[0,0.5,0],[0,0.25,0]];fontSize=14;strokeWidth=3;allowArrows=0;rotatable=0;" vertex="1" parent="26"><mxGeometry x="30" y="30" width="240" height="120" as="geometry" /></mxCell></object><object placeholders="1" c4Name="ibp-airflow-prod" label="&lt;font style=&quot;font-size: 16px&quot;&gt;&lt;b&gt;&lt;div style=&quot;text-align: left&quot;&gt;%c4Name% x %c4Instances%&lt;/div&gt;&lt;/b&gt;&lt;/font&gt;&lt;div style=&quot;text-align: left&quot;&gt;[&lt;span style=&quot;background-color: initial;&quot;&gt;%c4Specifications%]&lt;/span&gt;&lt;/div&gt;" c4Instances="1" c4Specifications="namespace" id="28"><mxCell style="rounded=1;fontSize=11;whiteSpace=wrap;html=1;dashed=1;arcSize=20;fillColor=none;strokeColor=#06315C;fontColor=#000;labelBackgroundColor=none;align=left;verticalAlign=bottom;labelBorderColor=none;spacingTop=0;spacing=10;dashPattern=8 4;metaEdit=1;rotatable=0;perimeter=rectanglePerimeter;noLabel=0;labelPadding=0;allowArrows=0;;connectable=1;expand=0;recursiveResize=0;editable=1;pointerEvents=0;absoluteArcSize=1;points=[[0.25,0,0],[0.5,0,0],[0.75,0,0],[1,0.25,0],[1,0.5,0],[1,0.75,0],[0.75,1,0],[0.5,1,0],[0.25,1,0],[0,0.75,0],[0,0.5,0],[0,0.25,0]];strokeWidth=2;container=1;imageAlign=right;imageVerticalAlign=bottom;direction=east;collapsible=0;" vertex="1" parent="6"><mxGeometry x="420" y="1030" width="360" height="340" as="geometry" /></mxCell></object><object placeholders="1" c4Name="AUTO-CREATE" label="&lt;font style=&quot;font-size: 16px&quot;&gt;&lt;b&gt;&lt;div style=&quot;text-align: left&quot;&gt;%c4Name% x %c4Instances%&lt;/div&gt;&lt;/b&gt;&lt;/font&gt;&lt;div style=&quot;text-align: left&quot;&gt;[&lt;span style=&quot;background-color: initial;&quot;&gt;%c4Specifications%]&lt;/span&gt;&lt;/div&gt;" c4Instances="n" c4Specifications="k8s pod" id="29"><mxCell style="rounded=1;fontSize=11;whiteSpace=wrap;html=1;dashed=1;arcSize=20;fillColor=none;strokeColor=#06315C;fontColor=#000;labelBackgroundColor=none;align=left;verticalAlign=bottom;labelBorderColor=none;spacingTop=0;spacing=10;dashPattern=8 4;metaEdit=1;rotatable=0;perimeter=rectanglePerimeter;noLabel=0;labelPadding=0;allowArrows=0;;connectable=1;expand=0;recursiveResize=0;editable=1;pointerEvents=0;absoluteArcSize=1;points=[[0.25,0,0],[0.5,0,0],[0.75,0,0],[1,0.25,0],[1,0.5,0],[1,0.75,0],[0.75,1,0],[0.5,1,0],[0.25,1,0],[0,0.75,0],[0,0.5,0],[0,0.25,0]];strokeWidth=2;container=1;imageAlign=right;imageVerticalAlign=bottom;direction=east;collapsible=0;" vertex="1" parent="28"><mxGeometry x="30" y="30" width="300" height="230" as="geometry" /></mxCell></object><object placeholders="1" c4Name="ETL Tasks" c4Type="Service" c4Technology="Airflow DAGs" c4Description="Даги интеграций" label="&lt;font style=&quot;font-size: 16px&quot;&gt;&lt;b&gt;%c4Name%&lt;/b&gt;&lt;/font&gt;&lt;div&gt;[%c4Type%: %c4Technology%]&lt;/div&gt;&lt;br&gt;&lt;div&gt;&lt;font style=&quot;font-size: 11px&quot;&gt;%c4Description%&lt;/font&gt;&lt;/div&gt;" id="30"><mxCell style="rounded=1;whiteSpace=wrap;html=1;labelBackgroundColor=none;fillColor=#23A2D9;fontColor=#ffffff;align=center;arcSize=6;strokeColor=#0E7DAD;metaEdit=1;resizable=1;points=[[0.25,0,0],[0.5,0,0],[0.75,0,0],[1,0.25,0],[1,0.5,0],[1,0.75,0],[0.75,1,0],[0.5,1,0],[0.25,1,0],[0,0.75,0],[0,0.5,0],[0,0.25,0]];fontSize=14;strokeWidth=3;allowArrows=0;rotatable=0;" vertex="1" parent="29"><mxGeometry x="30" y="30" width="240" height="120" as="geometry" /></mxCell></object><object placeholders="1" c4Name="backend" label="&lt;font style=&quot;font-size: 16px&quot;&gt;&lt;b&gt;&lt;div style=&quot;text-align: left&quot;&gt;%c4Name% x %c4Instances%&lt;/div&gt;&lt;/b&gt;&lt;/font&gt;&lt;div style=&quot;text-align: left&quot;&gt;[&lt;span style=&quot;background-color: initial;&quot;&gt;%c4Specifications%]&lt;/span&gt;&lt;/div&gt;" c4Instances="1" c4Specifications="subnet" id="31"><mxCell style="rounded=1;fontSize=11;whiteSpace=wrap;html=1;dashed=1;arcSize=20;fillColor=none;strokeColor=#06315C;fontColor=#000;labelBackgroundColor=none;align=left;verticalAlign=bottom;labelBorderColor=none;spacingTop=0;spacing=10;dashPattern=8 4;metaEdit=1;rotatable=0;perimeter=rectanglePerimeter;noLabel=0;labelPadding=0;allowArrows=0;;connectable=1;expand=0;recursiveResize=0;editable=1;pointerEvents=0;absoluteArcSize=1;points=[[0.25,0,0],[0.5,0,0],[0.75,0,0],[1,0.25,0],[1,0.5,0],[1,0.75,0],[0.75,1,0],[0.5,1,0],[0.25,1,0],[0,0.75,0],[0,0.5,0],[0,0.25,0]];strokeWidth=2;container=1;imageAlign=right;imageVerticalAlign=bottom;direction=east;collapsible=0;" vertex="1" parent="5"><mxGeometry x="30" y="1510" width="360" height="340" as="geometry" /></mxCell></object><object placeholders="1" c4Name="Kafka as a Service" label="&lt;font style=&quot;font-size: 16px&quot;&gt;&lt;b&gt;&lt;div style=&quot;text-align: left&quot;&gt;%c4Name% x %c4Instances%&lt;/div&gt;&lt;/b&gt;&lt;/font&gt;&lt;div style=&quot;text-align: left&quot;&gt;[&lt;span style=&quot;background-color: initial;&quot;&gt;%c4Specifications%]&lt;/span&gt;&lt;/div&gt;" c4Instances="1" c4Specifications="VM" id="32"><mxCell style="rounded=1;fontSize=11;whiteSpace=wrap;html=1;dashed=1;arcSize=20;fillColor=none;strokeColor=#06315C;fontColor=#000;labelBackgroundColor=none;align=left;verticalAlign=bottom;labelBorderColor=none;spacingTop=0;spacing=10;dashPattern=8 4;metaEdit=1;rotatable=0;perimeter=rectanglePerimeter;noLabel=0;labelPadding=0;allowArrows=0;;connectable=1;expand=0;recursiveResize=0;editable=1;pointerEvents=0;absoluteArcSize=1;points=[[0.25,0,0],[0.5,0,0],[0.75,0,0],[1,0.25,0],[1,0.5,0],[1,0.75,0],[0.75,1,0],[0.5,1,0],[0.25,1,0],[0,0.75,0],[0,0.5,0],[0,0.25,0]];strokeWidth=2;container=1;imageAlign=right;imageVerticalAlign=bottom;direction=east;collapsible=0;" vertex="1" parent="31"><mxGeometry x="30" y="30" width="300" height="230" as="geometry" /></mxCell></object><object placeholders="1" c4Name="Брокер интеграций" c4Type="Message broker" c4Technology="Kafka" c4Description="Брокер интеграций" label="&lt;b&gt;%c4Name%&lt;/b&gt;&lt;div&gt;[%c4Type%: %c4Technology%]&lt;/div&gt;&lt;br&gt;&lt;div&gt;%c4Description%&lt;/div&gt;" id="33"><mxCell style="shape=cylinder3;size=15;direction=south;whiteSpace=wrap;html=1;boundedLbl=1;rounded=0;labelBackgroundColor=none;fillColor=#23A2D9;fontSize=14;fontColor=#fff;align=center;strokeColor=#0E7DAD;metaEdit=1;resizable=1;strokeWidth=3;allowArrows=0;verticalAlign=middle;points=[[0,0,0,0,67.5],[0,0,0,0,172.5],[0,0.5,0,0,0],[0.145,0,0,0,4.35],[0.145,1,0,0,-4.35],[0.5,0,0,0,0],[0.5,1,0,0,0],[0.855,0,0,0,4.35],[0.855,1,0,0,-4.35],[1,0,0,0,67.5],[1,0,0,0,172.5],[1,0.5,0,0,0]];rotatable=0;" vertex="1" parent="32"><mxGeometry x="30" y="30" width="240" height="120" as="geometry" /></mxCell></object><object placeholders="1" c4Name="data" label="&lt;font style=&quot;font-size: 16px&quot;&gt;&lt;b&gt;&lt;div style=&quot;text-align: left&quot;&gt;%c4Name% x %c4Instances%&lt;/div&gt;&lt;/b&gt;&lt;/font&gt;&lt;div style=&quot;text-align: left&quot;&gt;[&lt;span style=&quot;background-color: initial;&quot;&gt;%c4Specifications%]&lt;/span&gt;&lt;/div&gt;" c4Instances="1" c4Specifications="subnet" id="34"><mxCell style="rounded=1;fontSize=11;whiteSpace=wrap;html=1;dashed=1;arcSize=20;fillColor=none;strokeColor=#06315C;fontColor=#000;labelBackgroundColor=none;align=left;verticalAlign=bottom;labelBorderColor=none;spacingTop=0;spacing=10;dashPattern=8 4;metaEdit=1;rotatable=0;perimeter=rectanglePerimeter;noLabel=0;labelPadding=0;allowArrows=0;;connectable=1;expand=0;recursiveResize=0;editable=1;pointerEvents=0;absoluteArcSize=1;points=[[0.25,0,0],[0.5,0,0],[0.75,0,0],[1,0.25,0],[1,0.5,0],[1,0.75,0],[0.75,1,0],[0.5,1,0],[0.25,1,0],[0,0.75,0],[0,0.5,0],[0,0.25,0]];strokeWidth=2;container=1;imageAlign=right;imageVerticalAlign=bottom;direction=east;collapsible=0;" vertex="1" parent="5"><mxGeometry x="420" y="1510" width="360" height="340" as="geometry" /></mxCell></object><object placeholders="1" c4Name="[NEW]" label="&lt;font style=&quot;font-size: 16px&quot;&gt;&lt;b&gt;&lt;div style=&quot;text-align: left&quot;&gt;%c4Name% x %c4Instances%&lt;/div&gt;&lt;/b&gt;&lt;/font&gt;&lt;div style=&quot;text-align: left&quot;&gt;[&lt;span style=&quot;background-color: initial;&quot;&gt;%c4Specifications%]&lt;/span&gt;&lt;/div&gt;" c4Instances="3" c4Specifications="db cluster&#10;1 Master / 2 Slave" id="35"><mxCell style="rounded=1;fontSize=11;whiteSpace=wrap;html=1;dashed=1;arcSize=20;fillColor=none;strokeColor=#06315C;fontColor=#000;labelBackgroundColor=none;align=left;verticalAlign=bottom;labelBorderColor=none;spacingTop=0;spacing=10;dashPattern=8 4;metaEdit=1;rotatable=0;perimeter=rectanglePerimeter;noLabel=0;labelPadding=0;allowArrows=0;;connectable=1;expand=0;recursiveResize=0;editable=1;pointerEvents=0;absoluteArcSize=1;points=[[0.25,0,0],[0.5,0,0],[0.75,0,0],[1,0.25,0],[1,0.5,0],[1,0.75,0],[0.75,1,0],[0.5,1,0],[0.25,1,0],[0,0.75,0],[0,0.5,0],[0,0.25,0]];strokeWidth=2;container=1;imageAlign=right;imageVerticalAlign=bottom;direction=east;collapsible=0;" vertex="1" parent="34"><mxGeometry x="30" y="30" width="300" height="230" as="geometry" /></mxCell></object><object placeholders="1" c4Name="БД сервиса статистики интеграций" c4Type="RDBMS" c4Technology="PostgreSQL" c4Description="Хранение статистики интеграций" label="&lt;b&gt;%c4Name%&lt;/b&gt;&lt;div&gt;[%c4Type%: %c4Technology%]&lt;/div&gt;&lt;br&gt;&lt;div&gt;%c4Description%&lt;/div&gt;" id="36"><mxCell style="shape=cylinder3;size=15;whiteSpace=wrap;html=1;boundedLbl=1;rounded=0;labelBackgroundColor=none;fillColor=#23A2D9;fontSize=14;fontColor=#fff;align=center;strokeColor=#0E7DAD;metaEdit=1;points=[[0,0.25,0,0,0],[0,0.5,0,0,0],[0,0.75,0,0,0],[0.25,0.01,0,0,0],[0.25,0.99,0,0,0],[0.5,0,0,0,0],[0.5,1,0,0,0],[0.75,0.01,0,0,0],[0.75,0.99,0,0,0],[1,0.25,0,0,0],[1,0.5,0,0,0],[1,0.75,0,0,0]];resizable=1;strokeWidth=3;allowArrows=0;verticalAlign=middle;spacing=3;rotatable=0;" vertex="1" parent="35"><mxGeometry x="30" y="30" width="240" height="120" as="geometry" /></mxCell></object></root></mxGraphModel></diagram></mxfile>